<?xml version="1.0" standalone="no"?>
<!DOCTYPE svg PUBLIC "-//W3C//DTD SVG 20010904//EN"
 "http://www.w3.org/TR/2001/REC-SVG-20010904/DTD/svg10.dtd">
<svg version="1.0" xmlns="http://www.w3.org/2000/svg"
 width="2540.000000pt" height="2540.000000pt" viewBox="0 0 2540.000000 2540.000000"
 preserveAspectRatio="xMidYMid meet">
<metadata>
Created by potrace 1.14, written by Peter Selinger 2001-2017
</metadata>
<g transform="translate(0.000000,2540.000000) scale(0.100000,-0.100000)"
fill="#000000" stroke="none">
<path d="M12397 21104 c-1 -1 -130 -5 -287 -9 -305 -8 -335 -9 -535 -19 -131
-7 -183 -10 -330 -21 -44 -3 -114 -8 -155 -11 -41 -3 -96 -7 -121 -8 -54 -4
-180 -16 -229 -21 -19 -2 -69 -7 -110 -10 -41 -4 -86 -8 -100 -10 -14 -2 -56
-6 -95 -10 -38 -3 -81 -8 -95 -10 -14 -2 -52 -6 -85 -10 -91 -9 -266 -31 -335
-41 -19 -2 -84 -12 -145 -20 -60 -8 -121 -17 -135 -19 -14 -2 -45 -7 -70 -10
-25 -3 -58 -9 -75 -11 -16 -3 -41 -7 -55 -9 -14 -2 -38 -6 -55 -9 -16 -3 -100
-17 -185 -31 -85 -14 -165 -27 -176 -29 -19 -4 -63 -12 -119 -21 -11 -2 -31
-6 -45 -9 -22 -5 -72 -15 -165 -32 -16 -3 -70 -14 -120 -25 -49 -11 -106 -22
-125 -25 -19 -3 -48 -9 -65 -14 -16 -5 -55 -14 -85 -19 -84 -17 -86 -17 -225
-50 -834 -195 -1638 -441 -2180 -666 -144 -60 -453 -207 -530 -252 -304 -180
-448 -287 -639 -472 -453 -441 -740 -1041 -870 -1821 -9 -52 -18 -104 -20
-116 -2 -12 -7 -45 -11 -75 -3 -30 -8 -61 -10 -69 -2 -8 -6 -40 -10 -70 -3
-30 -7 -71 -10 -90 -12 -93 -18 -137 -20 -160 -1 -14 -5 -54 -9 -90 -3 -36 -8
-75 -10 -85 -2 -11 -7 -51 -11 -88 -3 -37 -8 -76 -10 -85 -1 -9 -6 -55 -10
-102 -4 -47 -8 -87 -10 -90 -1 -3 -6 -36 -9 -75 -4 -38 -9 -77 -11 -85 -2 -8
-7 -46 -10 -85 -4 -38 -8 -83 -10 -100 -2 -16 -6 -55 -10 -85 -3 -30 -7 -71
-10 -90 -2 -19 -7 -60 -10 -90 -3 -30 -8 -66 -10 -80 -2 -14 -7 -52 -10 -85
-3 -33 -8 -73 -10 -90 -2 -16 -7 -57 -10 -90 -3 -33 -8 -73 -10 -90 -5 -38
-13 -104 -20 -180 -4 -33 -8 -71 -10 -85 -6 -36 -23 -185 -30 -255 -3 -33 -8
-78 -11 -100 -3 -22 -7 -53 -9 -70 -2 -16 -7 -57 -10 -90 -3 -33 -8 -71 -10
-85 -2 -14 -6 -52 -10 -85 -6 -61 -12 -112 -19 -175 -3 -19 -7 -62 -11 -95 -3
-33 -8 -73 -10 -90 -3 -16 -7 -52 -10 -80 -3 -27 -7 -63 -10 -80 -2 -16 -7
-55 -10 -85 -3 -30 -8 -66 -10 -80 -2 -14 -11 -70 -19 -125 -72 -473 -198
-730 -456 -930 -184 -142 -479 -272 -854 -377 -60 -16 -120 -32 -132 -34 -117
-21 -376 -115 -550 -199 -120 -58 -354 -192 -414 -237 -280 -209 -482 -421
-633 -666 -188 -303 -308 -663 -334 -997 -10 -121 -9 -3558 0 -3662 7 -73 12
-109 33 -228 5 -25 54 -217 69 -265 61 -203 248 -547 393 -720 276 -329 598
-559 986 -704 87 -33 277 -85 366 -100 19 -3 46 -8 59 -11 25 -5 92 -12 181
-20 71 -6 21130 -7 21190 -1 25 3 72 8 105 11 376 39 784 204 1100 443 141
108 304 265 393 382 15 19 34 43 43 53 37 41 151 219 203 317 53 102 142 309
150 353 2 12 9 35 15 50 11 28 56 216 65 272 14 84 19 129 25 222 8 137 6
3576 -3 3633 -42 272 -73 403 -137 574 -128 341 -323 624 -623 901 -25 24
-164 132 -206 161 -223 154 -559 321 -778 385 -74 22 -255 72 -302 83 -187 46
-486 158 -649 243 -311 162 -473 342 -579 645 -26 73 -79 281 -87 343 -1 11
-7 54 -14 95 -6 41 -13 89 -15 105 -2 17 -9 66 -15 110 -6 44 -13 105 -16 135
-3 30 -8 66 -10 80 -2 14 -6 52 -10 85 -3 33 -8 71 -10 85 -2 14 -6 52 -10 85
-3 33 -8 74 -10 90 -2 17 -7 57 -10 90 -3 33 -8 74 -10 90 -2 17 -7 55 -10 85
-3 30 -8 71 -10 90 -4 33 -9 72 -21 185 -8 77 -14 127 -19 165 -3 19 -7 58
-10 85 -3 28 -7 61 -9 75 -2 14 -7 59 -11 100 -4 41 -8 82 -10 90 -1 8 -6 47
-9 85 -4 39 -9 77 -11 85 -2 8 -6 45 -10 81 -3 36 -7 76 -10 90 -2 13 -6 54
-10 91 -3 37 -8 77 -10 90 -2 13 -6 50 -10 83 -12 115 -15 140 -20 175 -2 19
-9 80 -15 135 -6 55 -12 112 -14 125 -3 14 -7 55 -11 92 -3 37 -8 77 -10 90
-2 13 -6 50 -10 83 -3 33 -8 80 -11 105 -2 25 -6 56 -9 70 -2 14 -7 56 -11 95
-3 38 -8 78 -10 90 -2 11 -6 45 -9 75 -4 30 -8 62 -10 70 -2 8 -7 41 -10 73
-4 32 -8 68 -11 80 -3 12 -14 74 -25 137 -29 168 -28 160 -69 329 -132 534
-328 935 -636 1301 -330 392 -775 677 -1499 963 -311 123 -950 326 -1390 442
-55 14 -125 33 -155 41 -86 24 -217 57 -315 79 -33 7 -130 30 -215 50 -136 32
-389 86 -460 99 -14 2 -70 14 -125 25 -55 11 -112 22 -128 25 -73 13 -146 26
-182 32 -22 3 -44 7 -50 9 -17 3 -78 15 -110 20 -16 3 -55 9 -85 14 -30 6 -73
13 -95 16 -22 3 -69 10 -105 16 -58 10 -83 14 -155 23 -11 2 -42 6 -70 10 -71
11 -90 14 -185 26 -136 17 -164 21 -190 25 -14 2 -52 7 -84 10 -33 3 -71 7
-85 10 -14 2 -51 6 -81 9 -30 3 -122 13 -205 21 -82 8 -177 17 -210 20 -33 3
-76 8 -95 10 -19 2 -73 7 -120 10 -47 3 -103 8 -125 9 -22 2 -89 7 -150 11
-60 3 -130 8 -155 10 -40 4 -183 11 -385 20 -279 13 -1219 27 -1228 19z"/>
</g>
</svg>
